<svg xmlns="http://www.w3.org/2000/svg" viewBox="0 0 1200 900" width="1200" height="900">
<defs>
  <linearGradient id="bg" x1="0" y1="0" x2="1" y2="1"><stop offset="0" stop-color="#6A1419"/><stop offset="1" stop-color="#4A0D11"/></linearGradient>
  <radialGradient id="glow" cx="0.5" cy="0.62" r="0.55"><stop offset="0" stop-color="#D9A64A" stop-opacity="0.45"/><stop offset="1" stop-color="#D9A64A" stop-opacity="0"/></radialGradient>
  <linearGradient id="gold" x1="0" y1="0" x2="0" y2="1"><stop offset="0" stop-color="#F1D28C"/><stop offset="1" stop-color="#D9A64A"/></linearGradient>
  <radialGradient id="flame" cx="0.5" cy="0.7" r="0.6"><stop offset="0" stop-color="#FFF4C8"/><stop offset="0.5" stop-color="#F5B24A"/><stop offset="1" stop-color="#E0501C" stop-opacity="0.9"/></radialGradient>
</defs>
<rect width="1200" height="900" fill="url(#bg)"/>
<rect width="1200" height="900" fill="url(#glow)"/>
<g transform="translate(600 480)" fill="none" stroke="#D9A64A" stroke-opacity="0.14" stroke-width="1.2"><g transform="rotate(0)"><path d="M0 0c0-132 44-220 0-352-44 132 0 220 0 352Z"/><path d="M0 0c-35-88-26-176 0-264 26 88 35 176 0 264Z"/></g><g transform="rotate(45)"><path d="M0 0c0-132 44-220 0-352-44 132 0 220 0 352Z"/><path d="M0 0c-35-88-26-176 0-264 26 88 35 176 0 264Z"/></g><g transform="rotate(90)"><path d="M0 0c0-132 44-220 0-352-44 132 0 220 0 352Z"/><path d="M0 0c-35-88-26-176 0-264 26 88 35 176 0 264Z"/></g><g transform="rotate(135)"><path d="M0 0c0-132 44-220 0-352-44 132 0 220 0 352Z"/><path d="M0 0c-35-88-26-176 0-264 26 88 35 176 0 264Z"/></g><g transform="rotate(180)"><path d="M0 0c0-132 44-220 0-352-44 132 0 220 0 352Z"/><path d="M0 0c-35-88-26-176 0-264 26 88 35 176 0 264Z"/></g><g transform="rotate(225)"><path d="M0 0c0-132 44-220 0-352-44 132 0 220 0 352Z"/><path d="M0 0c-35-88-26-176 0-264 26 88 35 176 0 264Z"/></g><g transform="rotate(270)"><path d="M0 0c0-132 44-220 0-352-44 132 0 220 0 352Z"/><path d="M0 0c-35-88-26-176 0-264 26 88 35 176 0 264Z"/></g><g transform="rotate(315)"><path d="M0 0c0-132 44-220 0-352-44 132 0 220 0 352Z"/><path d="M0 0c-35-88-26-176 0-264 26 88 35 176 0 264Z"/></g><circle r="405"/><circle r="264"/><circle r="62"/></g><circle cx="871" cy="411" r="1.7" fill="#F1D28C" opacity="0.30"/><circle cx="300" cy="72" r="1.9" fill="#F1D28C" opacity="0.59"/><circle cx="819" cy="733" r="2.6" fill="#F1D28C" opacity="0.37"/><circle cx="660" cy="398" r="2.8" fill="#F1D28C" opacity="0.49"/><circle cx="337" cy="566" r="3.1" fill="#F1D28C" opacity="0.35"/><circle cx="1026" cy="52" r="1.7" fill="#F1D28C" opacity="0.36"/><circle cx="873" cy="815" r="2.7" fill="#F1D28C" opacity="0.40"/><circle cx="1026" cy="309" r="1.7" fill="#F1D28C" opacity="0.66"/><circle cx="746" cy="608" r="2.5" fill="#F1D28C" opacity="0.69"/><circle cx="566" cy="729" r="2.6" fill="#F1D28C" opacity="0.64"/><circle cx="530" cy="634" r="2.3" fill="#F1D28C" opacity="0.39"/><circle cx="277" cy="551" r="1.4" fill="#F1D28C" opacity="0.66"/><circle cx="202" cy="62" r="1.4" fill="#F1D28C" opacity="0.67"/><circle cx="426" cy="156" r="1.3" fill="#F1D28C" opacity="0.27"/><circle cx="816" cy="560" r="2.6" fill="#F1D28C" opacity="0.58"/><circle cx="114" cy="524" r="1.9" fill="#F1D28C" opacity="0.62"/><circle cx="958" cy="771" r="1.3" fill="#F1D28C" opacity="0.64"/><circle cx="1064" cy="814" r="1.4" fill="#F1D28C" opacity="0.34"/><circle cx="165" cy="68" r="2.9" fill="#F1D28C" opacity="0.62"/><circle cx="750" cy="717" r="2.5" fill="#F1D28C" opacity="0.38"/><circle cx="152" cy="120" r="2.7" fill="#F1D28C" opacity="0.34"/><circle cx="397" cy="387" r="1.2" fill="#F1D28C" opacity="0.37"/><circle cx="357" cy="627" r="1.9" fill="#F1D28C" opacity="0.39"/><circle cx="1120" cy="453" r="2.9" fill="#F1D28C" opacity="0.53"/><circle cx="75" cy="379" r="2.1" fill="#F1D28C" opacity="0.60"/><circle cx="428" cy="618" r="2.3" fill="#F1D28C" opacity="0.35"/><circle cx="1006" cy="115" r="2.8" fill="#F1D28C" opacity="0.33"/><circle cx="41" cy="206" r="2.7" fill="#F1D28C" opacity="0.69"/><circle cx="45" cy="442" r="2.2" fill="#F1D28C" opacity="0.61"/><circle cx="247" cy="446" r="1.9" fill="#F1D28C" opacity="0.62"/><circle cx="332" cy="814" r="1.8" fill="#F1D28C" opacity="0.35"/><circle cx="823" cy="449" r="1.4" fill="#F1D28C" opacity="0.54"/><circle cx="131" cy="686" r="2.6" fill="#F1D28C" opacity="0.60"/><circle cx="743" cy="332" r="2.0" fill="#F1D28C" opacity="0.43"/><circle cx="1037" cy="111" r="3.0" fill="#F1D28C" opacity="0.26"/><circle cx="271" cy="256" r="3.0" fill="#F1D28C" opacity="0.48"/><circle cx="465" cy="765" r="1.7" fill="#F1D28C" opacity="0.46"/><circle cx="635" cy="659" r="2.7" fill="#F1D28C" opacity="0.54"/><circle cx="430" cy="308" r="1.5" fill="#F1D28C" opacity="0.63"/><circle cx="782" cy="648" r="1.5" fill="#F1D28C" opacity="0.45"/><circle cx="906" cy="515" r="1.5" fill="#F1D28C" opacity="0.46"/><circle cx="1031" cy="235" r="1.6" fill="#F1D28C" opacity="0.39"/><circle cx="828" cy="732" r="1.5" fill="#F1D28C" opacity="0.32"/><circle cx="317" cy="308" r="2.2" fill="#F1D28C" opacity="0.32"/><circle cx="407" cy="195" r="3.2" fill="#F1D28C" opacity="0.58"/><circle cx="154" cy="829" r="1.4" fill="#F1D28C" opacity="0.42"/><circle cx="1142" cy="692" r="2.7" fill="#F1D28C" opacity="0.45"/><circle cx="260" cy="563" r="1.4" fill="#F1D28C" opacity="0.34"/><circle cx="475" cy="68" r="2.0" fill="#F1D28C" opacity="0.61"/><circle cx="817" cy="450" r="2.5" fill="#F1D28C" opacity="0.46"/><path d="M0 50 L92 67 L185 83 L277 96 L369 108 L462 115 L554 119 L646 119 L738 115 L831 108 L923 96 L1015 83 L1108 67 L1200 50" fill="none" stroke="#D9A64A" stroke-width="3" opacity=".8"/><circle cx="0" cy="50" r="13" fill="#F3B54A"/><circle cx="0" cy="50" r="4" fill="#6A1419"/><circle cx="92" cy="67" r="9" fill="#F1D28C"/><circle cx="92" cy="67" r="4" fill="#6A1419"/><circle cx="185" cy="83" r="13" fill="#F3B54A"/><circle cx="185" cy="83" r="4" fill="#6A1419"/><circle cx="277" cy="96" r="9" fill="#F1D28C"/><circle cx="277" cy="96" r="4" fill="#6A1419"/><circle cx="369" cy="108" r="13" fill="#F3B54A"/><circle cx="369" cy="108" r="4" fill="#6A1419"/><circle cx="462" cy="115" r="9" fill="#F1D28C"/><circle cx="462" cy="115" r="4" fill="#6A1419"/><circle cx="554" cy="119" r="13" fill="#F3B54A"/><circle cx="554" cy="119" r="4" fill="#6A1419"/><circle cx="646" cy="119" r="9" fill="#F1D28C"/><circle cx="646" cy="119" r="4" fill="#6A1419"/><circle cx="738" cy="115" r="13" fill="#F3B54A"/><circle cx="738" cy="115" r="4" fill="#6A1419"/><circle cx="831" cy="108" r="9" fill="#F1D28C"/><circle cx="831" cy="108" r="4" fill="#6A1419"/><circle cx="923" cy="96" r="13" fill="#F3B54A"/><circle cx="923" cy="96" r="4" fill="#6A1419"/><circle cx="1015" cy="83" r="9" fill="#F1D28C"/><circle cx="1015" cy="83" r="4" fill="#6A1419"/><circle cx="1108" cy="67" r="13" fill="#F3B54A"/><circle cx="1108" cy="67" r="4" fill="#6A1419"/><circle cx="1200" cy="50" r="9" fill="#F1D28C"/><circle cx="1200" cy="50" r="4" fill="#6A1419"/><g transform="translate(420 700) scale(0.8)" fill="none" stroke="url(#gold)" stroke-width="5" stroke-linecap="round">
<ellipse cx="0" cy="0" rx="90" ry="110" fill="#4A0D11" fill-opacity=".5"/>
<path d="M0-100v-420" stroke-width="16" stroke="#4A0D11" stroke-opacity=".6"/>
<path d="M0-100v-420" stroke-width="8"/>
<path d="M-8-110v-400M8-110v-400M-3-110v-400M3-110v-400" stroke-width="1.4" stroke-opacity=".8"/>
<path d="M-30-520h60v-30h-60Z" fill="url(#gold)"/>
<circle cx="-22" cy="-560" r="8" fill="url(#gold)"/><circle cx="22" cy="-560" r="8" fill="url(#gold)"/><circle cx="-22" cy="-585" r="8" fill="url(#gold)"/><circle cx="22" cy="-585" r="8" fill="url(#gold)"/>
<path d="M-40-40h80" stroke-width="6"/>
<circle cx="0" cy="20" r="14" stroke-width="3"/>
</g><g transform="translate(780 700) scale(0.8)" fill="none" stroke="url(#gold)" stroke-width="5" stroke-linecap="round">
<ellipse cx="0" cy="0" rx="90" ry="110" fill="#4A0D11" fill-opacity=".5"/>
<path d="M0-100v-420" stroke-width="16" stroke="#4A0D11" stroke-opacity=".6"/>
<path d="M0-100v-420" stroke-width="8"/>
<path d="M-8-110v-400M8-110v-400M-3-110v-400M3-110v-400" stroke-width="1.4" stroke-opacity=".8"/>
<path d="M-30-520h60v-30h-60Z" fill="url(#gold)"/>
<circle cx="-22" cy="-560" r="8" fill="url(#gold)"/><circle cx="22" cy="-560" r="8" fill="url(#gold)"/><circle cx="-22" cy="-585" r="8" fill="url(#gold)"/><circle cx="22" cy="-585" r="8" fill="url(#gold)"/>
<path d="M-40-40h80" stroke-width="6"/>
<circle cx="0" cy="20" r="14" stroke-width="3"/>
</g><g transform="translate(227 478) scale(0.74)" fill="#D9A64A" opacity="0.47"><ellipse cx="0" cy="0" rx="14" ry="10" transform="rotate(-20)"/><path d="M12-4v-70h4v70Z"/><path d="M16-74c20 6 26 20 18 36-2-14-8-22-18-26Z"/></g><g transform="translate(1024 364) scale(0.84)" fill="#D9A64A" opacity="0.47"><ellipse cx="0" cy="0" rx="14" ry="10" transform="rotate(-20)"/><path d="M12-4v-70h4v70Z"/><path d="M16-74c20 6 26 20 18 36-2-14-8-22-18-26Z"/></g><g transform="translate(518 231) scale(0.93)" fill="#D9A64A" opacity="0.51"><ellipse cx="0" cy="0" rx="14" ry="10" transform="rotate(-20)"/><path d="M12-4v-70h4v70Z"/><path d="M16-74c20 6 26 20 18 36-2-14-8-22-18-26Z"/></g><g transform="translate(885 542) scale(1.01)" fill="#D9A64A" opacity="0.45"><ellipse cx="0" cy="0" rx="14" ry="10" transform="rotate(-20)"/><path d="M12-4v-70h4v70Z"/><path d="M16-74c20 6 26 20 18 36-2-14-8-22-18-26Z"/></g><g transform="translate(747 380) scale(0.69)" fill="#D9A64A" opacity="0.44"><ellipse cx="0" cy="0" rx="14" ry="10" transform="rotate(-20)"/><path d="M12-4v-70h4v70Z"/><path d="M16-74c20 6 26 20 18 36-2-14-8-22-18-26Z"/></g><g transform="translate(182 357) scale(0.97)" fill="#D9A64A" opacity="0.46"><ellipse cx="0" cy="0" rx="14" ry="10" transform="rotate(-20)"/><path d="M12-4v-70h4v70Z"/><path d="M16-74c20 6 26 20 18 36-2-14-8-22-18-26Z"/></g>
</svg>