<svg xmlns="http://www.w3.org/2000/svg" viewBox="0 0 1200 900" width="1200" height="900">
<defs>
  <linearGradient id="bg" x1="0" y1="0" x2="1" y2="1"><stop offset="0" stop-color="#6A1419"/><stop offset="1" stop-color="#4A0D11"/></linearGradient>
  <radialGradient id="glow" cx="0.5" cy="0.62" r="0.55"><stop offset="0" stop-color="#D9A64A" stop-opacity="0.45"/><stop offset="1" stop-color="#D9A64A" stop-opacity="0"/></radialGradient>
  <linearGradient id="gold" x1="0" y1="0" x2="0" y2="1"><stop offset="0" stop-color="#F1D28C"/><stop offset="1" stop-color="#D9A64A"/></linearGradient>
  <radialGradient id="flame" cx="0.5" cy="0.7" r="0.6"><stop offset="0" stop-color="#FFF4C8"/><stop offset="0.5" stop-color="#F5B24A"/><stop offset="1" stop-color="#E0501C" stop-opacity="0.9"/></radialGradient>
</defs>
<rect width="1200" height="900" fill="url(#bg)"/>
<rect width="1200" height="900" fill="url(#glow)"/>
<g transform="translate(600 460)" fill="none" stroke="#D9A64A" stroke-opacity="0.14" stroke-width="1.2"><g transform="rotate(0)"><path d="M0 0c0-120 40-200 0-320-40 120 0 200 0 320Z"/><path d="M0 0c-32-80-24-160 0-240 24 80 32 160 0 240Z"/></g><g transform="rotate(45)"><path d="M0 0c0-120 40-200 0-320-40 120 0 200 0 320Z"/><path d="M0 0c-32-80-24-160 0-240 24 80 32 160 0 240Z"/></g><g transform="rotate(90)"><path d="M0 0c0-120 40-200 0-320-40 120 0 200 0 320Z"/><path d="M0 0c-32-80-24-160 0-240 24 80 32 160 0 240Z"/></g><g transform="rotate(135)"><path d="M0 0c0-120 40-200 0-320-40 120 0 200 0 320Z"/><path d="M0 0c-32-80-24-160 0-240 24 80 32 160 0 240Z"/></g><g transform="rotate(180)"><path d="M0 0c0-120 40-200 0-320-40 120 0 200 0 320Z"/><path d="M0 0c-32-80-24-160 0-240 24 80 32 160 0 240Z"/></g><g transform="rotate(225)"><path d="M0 0c0-120 40-200 0-320-40 120 0 200 0 320Z"/><path d="M0 0c-32-80-24-160 0-240 24 80 32 160 0 240Z"/></g><g transform="rotate(270)"><path d="M0 0c0-120 40-200 0-320-40 120 0 200 0 320Z"/><path d="M0 0c-32-80-24-160 0-240 24 80 32 160 0 240Z"/></g><g transform="rotate(315)"><path d="M0 0c0-120 40-200 0-320-40 120 0 200 0 320Z"/><path d="M0 0c-32-80-24-160 0-240 24 80 32 160 0 240Z"/></g><circle r="368"/><circle r="240"/><circle r="56"/></g><circle cx="839" cy="742" r="2.7" fill="#F1D28C" opacity="0.29"/><circle cx="744" cy="622" r="2.1" fill="#F1D28C" opacity="0.67"/><circle cx="325" cy="831" r="2.6" fill="#F1D28C" opacity="0.26"/><circle cx="56" cy="574" r="2.8" fill="#F1D28C" opacity="0.29"/><circle cx="388" cy="638" r="1.5" fill="#F1D28C" opacity="0.64"/><circle cx="585" cy="89" r="1.9" fill="#F1D28C" opacity="0.51"/><circle cx="531" cy="595" r="1.5" fill="#F1D28C" opacity="0.61"/><circle cx="447" cy="569" r="2.5" fill="#F1D28C" opacity="0.44"/><circle cx="472" cy="685" r="3.1" fill="#F1D28C" opacity="0.60"/><circle cx="675" cy="280" r="1.3" fill="#F1D28C" opacity="0.69"/><circle cx="828" cy="718" r="1.9" fill="#F1D28C" opacity="0.52"/><circle cx="1135" cy="722" r="2.4" fill="#F1D28C" opacity="0.39"/><circle cx="520" cy="768" r="2.0" fill="#F1D28C" opacity="0.56"/><circle cx="714" cy="775" r="2.8" fill="#F1D28C" opacity="0.38"/><circle cx="42" cy="256" r="2.0" fill="#F1D28C" opacity="0.51"/><circle cx="954" cy="768" r="1.3" fill="#F1D28C" opacity="0.62"/><circle cx="949" cy="751" r="2.3" fill="#F1D28C" opacity="0.37"/><circle cx="993" cy="702" r="2.6" fill="#F1D28C" opacity="0.66"/><circle cx="428" cy="110" r="2.3" fill="#F1D28C" opacity="0.61"/><circle cx="264" cy="655" r="3.1" fill="#F1D28C" opacity="0.36"/><circle cx="720" cy="596" r="2.1" fill="#F1D28C" opacity="0.34"/><circle cx="325" cy="656" r="2.8" fill="#F1D28C" opacity="0.46"/><circle cx="138" cy="701" r="2.7" fill="#F1D28C" opacity="0.35"/><circle cx="689" cy="775" r="3.0" fill="#F1D28C" opacity="0.48"/><circle cx="574" cy="523" r="1.6" fill="#F1D28C" opacity="0.34"/><circle cx="242" cy="615" r="1.9" fill="#F1D28C" opacity="0.50"/><circle cx="491" cy="464" r="1.5" fill="#F1D28C" opacity="0.27"/><circle cx="1157" cy="347" r="1.4" fill="#F1D28C" opacity="0.53"/><circle cx="922" cy="168" r="2.4" fill="#F1D28C" opacity="0.41"/><circle cx="622" cy="57" r="1.3" fill="#F1D28C" opacity="0.70"/><circle cx="1010" cy="439" r="2.3" fill="#F1D28C" opacity="0.37"/><circle cx="913" cy="389" r="3.1" fill="#F1D28C" opacity="0.60"/><circle cx="957" cy="830" r="1.7" fill="#F1D28C" opacity="0.27"/><circle cx="265" cy="188" r="1.4" fill="#F1D28C" opacity="0.27"/><circle cx="664" cy="754" r="2.1" fill="#F1D28C" opacity="0.68"/><circle cx="1059" cy="93" r="2.4" fill="#F1D28C" opacity="0.43"/><circle cx="174" cy="827" r="1.7" fill="#F1D28C" opacity="0.50"/><circle cx="758" cy="824" r="2.5" fill="#F1D28C" opacity="0.43"/><circle cx="542" cy="171" r="3.1" fill="#F1D28C" opacity="0.70"/><circle cx="288" cy="72" r="1.7" fill="#F1D28C" opacity="0.41"/><circle cx="1051" cy="782" r="2.9" fill="#F1D28C" opacity="0.27"/><circle cx="921" cy="622" r="2.5" fill="#F1D28C" opacity="0.69"/><circle cx="102" cy="159" r="2.7" fill="#F1D28C" opacity="0.67"/><circle cx="798" cy="285" r="2.4" fill="#F1D28C" opacity="0.59"/><circle cx="158" cy="306" r="1.7" fill="#F1D28C" opacity="0.31"/><circle cx="579" cy="178" r="1.7" fill="#F1D28C" opacity="0.31"/><circle cx="799" cy="50" r="2.6" fill="#F1D28C" opacity="0.34"/><circle cx="80" cy="801" r="1.6" fill="#F1D28C" opacity="0.67"/><circle cx="1011" cy="769" r="1.5" fill="#F1D28C" opacity="0.45"/><circle cx="149" cy="802" r="2.9" fill="#F1D28C" opacity="0.53"/><circle cx="547" cy="319" r="2.8" fill="#F1D28C" opacity="0.46"/><circle cx="744" cy="157" r="1.6" fill="#F1D28C" opacity="0.28"/><circle cx="839" cy="494" r="1.5" fill="#F1D28C" opacity="0.64"/><circle cx="338" cy="378" r="1.5" fill="#F1D28C" opacity="0.37"/><circle cx="980" cy="314" r="1.5" fill="#F1D28C" opacity="0.47"/><circle cx="396" cy="781" r="1.4" fill="#F1D28C" opacity="0.69"/><circle cx="104" cy="774" r="2.5" fill="#F1D28C" opacity="0.35"/><circle cx="575" cy="275" r="1.7" fill="#F1D28C" opacity="0.34"/><circle cx="448" cy="853" r="3.2" fill="#F1D28C" opacity="0.67"/><circle cx="149" cy="277" r="3.0" fill="#F1D28C" opacity="0.28"/><g transform="translate(600 640) scale(1.0)" fill="url(#gold)" opacity="0.45"><rect x="-160.0" y="-44" width="320" height="44" rx="4"/><rect x="-146.0" y="-32" width="18" height="20" rx="3" fill="#6A1419" fill-opacity=".5"/><rect x="-110.0" y="-32" width="18" height="20" rx="3" fill="#6A1419" fill-opacity=".5"/><rect x="-74.0" y="-32" width="18" height="20" rx="3" fill="#6A1419" fill-opacity=".5"/><rect x="-38.0" y="-32" width="18" height="20" rx="3" fill="#6A1419" fill-opacity=".5"/><rect x="-2.0" y="-32" width="18" height="20" rx="3" fill="#6A1419" fill-opacity=".5"/><rect x="34.0" y="-32" width="18" height="20" rx="3" fill="#6A1419" fill-opacity=".5"/><rect x="70.0" y="-32" width="18" height="20" rx="3" fill="#6A1419" fill-opacity=".5"/><rect x="106.0" y="-32" width="18" height="20" rx="3" fill="#6A1419" fill-opacity=".5"/><rect x="-138.0" y="-88" width="276" height="44" rx="4"/><rect x="-124.0" y="-76" width="18" height="20" rx="3" fill="#6A1419" fill-opacity=".5"/><rect x="-88.0" y="-76" width="18" height="20" rx="3" fill="#6A1419" fill-opacity=".5"/><rect x="-52.0" y="-76" width="18" height="20" rx="3" fill="#6A1419" fill-opacity=".5"/><rect x="-16.0" y="-76" width="18" height="20" rx="3" fill="#6A1419" fill-opacity=".5"/><rect x="20.0" y="-76" width="18" height="20" rx="3" fill="#6A1419" fill-opacity=".5"/><rect x="56.0" y="-76" width="18" height="20" rx="3" fill="#6A1419" fill-opacity=".5"/><rect x="-116.0" y="-132" width="232" height="44" rx="4"/><rect x="-102.0" y="-120" width="18" height="20" rx="3" fill="#6A1419" fill-opacity=".5"/><rect x="-66.0" y="-120" width="18" height="20" rx="3" fill="#6A1419" fill-opacity=".5"/><rect x="-30.0" y="-120" width="18" height="20" rx="3" fill="#6A1419" fill-opacity=".5"/><rect x="6.0" y="-120" width="18" height="20" rx="3" fill="#6A1419" fill-opacity=".5"/><rect x="42.0" y="-120" width="18" height="20" rx="3" fill="#6A1419" fill-opacity=".5"/><rect x="-94.0" y="-176" width="188" height="44" rx="4"/><rect x="-80.0" y="-164" width="18" height="20" rx="3" fill="#6A1419" fill-opacity=".5"/><rect x="-44.0" y="-164" width="18" height="20" rx="3" fill="#6A1419" fill-opacity=".5"/><rect x="-8.0" y="-164" width="18" height="20" rx="3" fill="#6A1419" fill-opacity=".5"/><rect x="28.0" y="-164" width="18" height="20" rx="3" fill="#6A1419" fill-opacity=".5"/><rect x="-72.0" y="-220" width="144" height="44" rx="4"/><rect x="-58.0" y="-208" width="18" height="20" rx="3" fill="#6A1419" fill-opacity=".5"/><rect x="-22.0" y="-208" width="18" height="20" rx="3" fill="#6A1419" fill-opacity=".5"/><rect x="14.0" y="-208" width="18" height="20" rx="3" fill="#6A1419" fill-opacity=".5"/><rect x="-50.0" y="-264" width="100" height="44" rx="4"/><rect x="-36.0" y="-252" width="18" height="20" rx="3" fill="#6A1419" fill-opacity=".5"/><rect x="0.0" y="-252" width="18" height="20" rx="3" fill="#6A1419" fill-opacity=".5"/><path d="M-50-264q50-40 100 0v14h-100Z"/><path d="M0-290v-30M-12-306h24" stroke="url(#gold)" stroke-width="4" fill="none"/></g><path d="M0 40 L92 57 L185 73 L277 86 L369 98 L462 105 L554 109 L646 109 L738 105 L831 98 L923 86 L1015 73 L1108 57 L1200 40" fill="none" stroke="#D9A64A" stroke-width="3" opacity=".8"/><circle cx="0" cy="40" r="13" fill="#F3B54A"/><circle cx="0" cy="40" r="4" fill="#6A1419"/><circle cx="92" cy="57" r="9" fill="#F1D28C"/><circle cx="92" cy="57" r="4" fill="#6A1419"/><circle cx="185" cy="73" r="13" fill="#F3B54A"/><circle cx="185" cy="73" r="4" fill="#6A1419"/><circle cx="277" cy="86" r="9" fill="#F1D28C"/><circle cx="277" cy="86" r="4" fill="#6A1419"/><circle cx="369" cy="98" r="13" fill="#F3B54A"/><circle cx="369" cy="98" r="4" fill="#6A1419"/><circle cx="462" cy="105" r="9" fill="#F1D28C"/><circle cx="462" cy="105" r="4" fill="#6A1419"/><circle cx="554" cy="109" r="13" fill="#F3B54A"/><circle cx="554" cy="109" r="4" fill="#6A1419"/><circle cx="646" cy="109" r="9" fill="#F1D28C"/><circle cx="646" cy="109" r="4" fill="#6A1419"/><circle cx="738" cy="105" r="13" fill="#F3B54A"/><circle cx="738" cy="105" r="4" fill="#6A1419"/><circle cx="831" cy="98" r="9" fill="#F1D28C"/><circle cx="831" cy="98" r="4" fill="#6A1419"/><circle cx="923" cy="86" r="13" fill="#F3B54A"/><circle cx="923" cy="86" r="4" fill="#6A1419"/><circle cx="1015" cy="73" r="9" fill="#F1D28C"/><circle cx="1015" cy="73" r="4" fill="#6A1419"/><circle cx="1108" cy="57" r="13" fill="#F3B54A"/><circle cx="1108" cy="57" r="4" fill="#6A1419"/><circle cx="1200" cy="40" r="9" fill="#F1D28C"/><circle cx="1200" cy="40" r="4" fill="#6A1419"/><g transform="translate(160 800) scale(0.9)"><path d="M-60 0q60 40 120 0l-12 22q-48 26-96 0Z" fill="url(#gold)"/><path d="M-60 0q60 18 120 0" fill="none" stroke="#4A0D11" stroke-opacity=".35" stroke-width="3"/><path d="M0-8c14 12 20 26 12 42-4 8-12 12-12 26 0-14-8-18-12-26-8-16-2-30 12-42Z" fill="url(#flame)" transform="translate(0 -46)"/><circle cx="0" cy="-30" r="54" fill="#F1D28C" opacity=".12"/></g><g transform="translate(400 830) scale(0.8)"><path d="M-60 0q60 40 120 0l-12 22q-48 26-96 0Z" fill="url(#gold)"/><path d="M-60 0q60 18 120 0" fill="none" stroke="#4A0D11" stroke-opacity=".35" stroke-width="3"/><path d="M0-8c14 12 20 26 12 42-4 8-12 12-12 26 0-14-8-18-12-26-8-16-2-30 12-42Z" fill="url(#flame)" transform="translate(0 -46)"/><circle cx="0" cy="-30" r="54" fill="#F1D28C" opacity=".12"/></g><g transform="translate(800 830) scale(0.8)"><path d="M-60 0q60 40 120 0l-12 22q-48 26-96 0Z" fill="url(#gold)"/><path d="M-60 0q60 18 120 0" fill="none" stroke="#4A0D11" stroke-opacity=".35" stroke-width="3"/><path d="M0-8c14 12 20 26 12 42-4 8-12 12-12 26 0-14-8-18-12-26-8-16-2-30 12-42Z" fill="url(#flame)" transform="translate(0 -46)"/><circle cx="0" cy="-30" r="54" fill="#F1D28C" opacity=".12"/></g><g transform="translate(1040 800) scale(0.9)"><path d="M-60 0q60 40 120 0l-12 22q-48 26-96 0Z" fill="url(#gold)"/><path d="M-60 0q60 18 120 0" fill="none" stroke="#4A0D11" stroke-opacity=".35" stroke-width="3"/><path d="M0-8c14 12 20 26 12 42-4 8-12 12-12 26 0-14-8-18-12-26-8-16-2-30 12-42Z" fill="url(#flame)" transform="translate(0 -46)"/><circle cx="0" cy="-30" r="54" fill="#F1D28C" opacity=".12"/></g>
</svg>