<svg xmlns="http://www.w3.org/2000/svg" viewBox="0 0 1200 1200" width="1200" height="1200">
<defs>
  <linearGradient id="bg" x1="0" y1="0" x2="1" y2="1"><stop offset="0" stop-color="#6A1419"/><stop offset="1" stop-color="#4A0D11"/></linearGradient>
  <radialGradient id="glow" cx="0.5" cy="0.62" r="0.55"><stop offset="0" stop-color="#D9A64A" stop-opacity="0.45"/><stop offset="1" stop-color="#D9A64A" stop-opacity="0"/></radialGradient>
  <linearGradient id="gold" x1="0" y1="0" x2="0" y2="1"><stop offset="0" stop-color="#F1D28C"/><stop offset="1" stop-color="#D9A64A"/></linearGradient>
  <radialGradient id="flame" cx="0.5" cy="0.7" r="0.6"><stop offset="0" stop-color="#FFF4C8"/><stop offset="0.5" stop-color="#F5B24A"/><stop offset="1" stop-color="#E0501C" stop-opacity="0.9"/></radialGradient>
</defs>
<rect width="1200" height="1200" fill="url(#bg)"/>
<rect width="1200" height="1200" fill="url(#glow)"/>
<g transform="translate(600 600)" fill="none" stroke="#D9A64A" stroke-opacity="0.16" stroke-width="1.2"><g transform="rotate(0)"><path d="M0 0c0-156 52-260 0-416-52 156 0 260 0 416Z"/><path d="M0 0c-42-104-31-208 0-312 31 104 42 208 0 312Z"/></g><g transform="rotate(45)"><path d="M0 0c0-156 52-260 0-416-52 156 0 260 0 416Z"/><path d="M0 0c-42-104-31-208 0-312 31 104 42 208 0 312Z"/></g><g transform="rotate(90)"><path d="M0 0c0-156 52-260 0-416-52 156 0 260 0 416Z"/><path d="M0 0c-42-104-31-208 0-312 31 104 42 208 0 312Z"/></g><g transform="rotate(135)"><path d="M0 0c0-156 52-260 0-416-52 156 0 260 0 416Z"/><path d="M0 0c-42-104-31-208 0-312 31 104 42 208 0 312Z"/></g><g transform="rotate(180)"><path d="M0 0c0-156 52-260 0-416-52 156 0 260 0 416Z"/><path d="M0 0c-42-104-31-208 0-312 31 104 42 208 0 312Z"/></g><g transform="rotate(225)"><path d="M0 0c0-156 52-260 0-416-52 156 0 260 0 416Z"/><path d="M0 0c-42-104-31-208 0-312 31 104 42 208 0 312Z"/></g><g transform="rotate(270)"><path d="M0 0c0-156 52-260 0-416-52 156 0 260 0 416Z"/><path d="M0 0c-42-104-31-208 0-312 31 104 42 208 0 312Z"/></g><g transform="rotate(315)"><path d="M0 0c0-156 52-260 0-416-52 156 0 260 0 416Z"/><path d="M0 0c-42-104-31-208 0-312 31 104 42 208 0 312Z"/></g><circle r="478"/><circle r="312"/><circle r="73"/></g><circle cx="745" cy="320" r="2.0" fill="#F1D28C" opacity="0.45"/><circle cx="736" cy="498" r="2.6" fill="#F1D28C" opacity="0.67"/><circle cx="245" cy="773" r="2.8" fill="#F1D28C" opacity="0.42"/><circle cx="589" cy="1132" r="1.3" fill="#F1D28C" opacity="0.49"/><circle cx="220" cy="916" r="3.1" fill="#F1D28C" opacity="0.48"/><circle cx="153" cy="684" r="2.3" fill="#F1D28C" opacity="0.57"/><circle cx="614" cy="756" r="2.9" fill="#F1D28C" opacity="0.48"/><circle cx="500" cy="1102" r="1.6" fill="#F1D28C" opacity="0.56"/><circle cx="480" cy="894" r="1.4" fill="#F1D28C" opacity="0.69"/><circle cx="438" cy="103" r="1.7" fill="#F1D28C" opacity="0.43"/><circle cx="55" cy="509" r="2.0" fill="#F1D28C" opacity="0.56"/><circle cx="434" cy="337" r="1.6" fill="#F1D28C" opacity="0.58"/><circle cx="1093" cy="630" r="1.6" fill="#F1D28C" opacity="0.61"/><circle cx="479" cy="277" r="1.5" fill="#F1D28C" opacity="0.60"/><circle cx="947" cy="750" r="2.1" fill="#F1D28C" opacity="0.50"/><circle cx="293" cy="1120" r="1.9" fill="#F1D28C" opacity="0.54"/><circle cx="957" cy="954" r="2.1" fill="#F1D28C" opacity="0.38"/><circle cx="654" cy="180" r="2.9" fill="#F1D28C" opacity="0.41"/><circle cx="993" cy="340" r="2.0" fill="#F1D28C" opacity="0.36"/><circle cx="517" cy="248" r="1.2" fill="#F1D28C" opacity="0.57"/><circle cx="355" cy="314" r="1.8" fill="#F1D28C" opacity="0.47"/><circle cx="520" cy="754" r="2.5" fill="#F1D28C" opacity="0.41"/><circle cx="1080" cy="997" r="1.3" fill="#F1D28C" opacity="0.62"/><circle cx="1055" cy="918" r="1.5" fill="#F1D28C" opacity="0.62"/><circle cx="749" cy="57" r="1.2" fill="#F1D28C" opacity="0.68"/><circle cx="775" cy="320" r="1.4" fill="#F1D28C" opacity="0.31"/><circle cx="302" cy="909" r="1.9" fill="#F1D28C" opacity="0.32"/><circle cx="1053" cy="927" r="1.5" fill="#F1D28C" opacity="0.65"/><circle cx="721" cy="915" r="2.5" fill="#F1D28C" opacity="0.65"/><circle cx="923" cy="979" r="1.6" fill="#F1D28C" opacity="0.56"/><g transform="translate(600 760) scale(1.6)"><path d="M0 0c-22-40-22-90 0-130 22 40 22 90 0 130Z" fill="url(#gold)" opacity=".95" transform="rotate(-60)"/><path d="M0 0c-22-40-22-90 0-130 22 40 22 90 0 130Z" fill="url(#gold)" opacity=".95" transform="rotate(-35)"/><path d="M0 0c-22-40-22-90 0-130 22 40 22 90 0 130Z" fill="url(#gold)" opacity=".95" transform="rotate(-12)"/><path d="M0 0c-22-40-22-90 0-130 22 40 22 90 0 130Z" fill="url(#gold)" opacity=".95" transform="rotate(12)"/><path d="M0 0c-22-40-22-90 0-130 22 40 22 90 0 130Z" fill="url(#gold)" opacity=".95" transform="rotate(35)"/><path d="M0 0c-22-40-22-90 0-130 22 40 22 90 0 130Z" fill="url(#gold)" opacity=".95" transform="rotate(60)"/><path d="M-70 0q70 40 140 0q-70 20-140 0Z" fill="#D9A64A" opacity=".7"/></g><g transform="translate(600 930) scale(1.2)"><path d="M-60 0q60 40 120 0l-12 22q-48 26-96 0Z" fill="url(#gold)"/><path d="M-60 0q60 18 120 0" fill="none" stroke="#4A0D11" stroke-opacity=".35" stroke-width="3"/></g>
</svg>